<svg xmlns="http://www.w3.org/2000/svg" version="1.1" xmlns:xlink="http://www.w3.org/1999/xlink" xmlns:svgjs="http://svgjs.dev/svgjs" width="100%" height="100%" viewBox="0 0 1000 600"><rect width="1000" height="600" x="0" y="0" fill="#b19fff"/><g><rect width="333.3333333333333" height="333.3333333333333" y="256.4810700028166" fill="#080a52" transform="matrix(0.5335977699365075,0,0,0.5335977699365076,0,74.209304318106)" x="234.25885009765622"/><path d="M346.08198722725086 354.46390551672465L365.4791344375274 354.46390551672465L365.4791344375274 348.14775259949937L303.35304016973777 348.14775259949937L303.35304016973777 354.46390551672465L325.20071665391043 354.46390551672465L325.20071665391043 454.45240279105053Q325.20071665391043 484.307442536405 317.6765563481448 490.1403924982141L317.6765563481448 490.1403924982141Q314.7773386156479 492.0732043198787 311.11880195321146 492.0732043198787L311.11880195321146 492.0732043198787Q304.5610475582781 492.0732043198787 302.3866342589055 484.54904401411306L302.3866342589055 484.54904401411306Q299.72901800411665 476.05847779751514 298.7626120932844 474.6088689312667L298.7626120932844 474.6088689312667Q295.82887986397213 470.70873079112215 290.03044439897843 470.70873079112215L290.03044439897843 470.70873079112215Q282.5062840932128 470.70873079112215 280.05575481931663 477.7496881414716L280.05575481931663 477.7496881414716Q279.3309503861924 479.6824999631362 279.3309503861924 481.3737103070927L279.3309503861924 481.3737103070927Q279.3309503861924 491.1067984090464 291.96325622064296 495.6972264854998L291.96325622064296 495.6972264854998Q298.7626120932844 498.1477557593959 307.0115768321743 498.1477557593959L307.0115768321743 498.1477557593959Q327.8583329086992 498.1477557593959 338.55782692148523 481.6153117848008L338.55782692148523 481.6153117848008Q346.08198722725086 469.74232488028986 346.08198722725086 452.0363880139698L346.08198722725086 452.0363880139698L346.08198722725086 354.46390551672465ZM383.70278875607903 493.7644146638352L443.13675227226446 493.7644146638352L443.13675227226446 487.44826174660994L423.98120653969596 487.44826174660994L423.98120653969596 427.01337782277676L447.03689041240904 427.01337782277676L485.86569932977756 493.7644146638352L522.5200949477735 493.7644146638352Q522.5200949477735 488.4146676574422 519.586362718461 487.689863224318L519.586362718461 487.689863224318Q518.3783553299209 487.44826174660994 516.6871449859643 487.44826174660994L516.6871449859643 487.44826174660994L507.4717743362422 487.44826174660994L468.4013639411656 424.8389645234041Q491.45704781387866 419.24761603930307 499.9476140304766 400.8168747398588L499.9476140304766 400.8168747398588Q503.08843324068147 393.53431591180123 503.08843324068147 386.0101556060356L503.08843324068147 386.0101556060356Q503.08843324068147 367.8210157842994 487.31530819602597 356.87992029380536L487.31530819602597 356.87992029380536Q474.4414008838674 348.14775259949937 455.52745662900696 348.14775259949937L455.52745662900696 348.14775259949937L383.70278875607903 348.14775259949937L383.70278875607903 354.46390551672465L403.0999359663556 354.46390551672465L403.0999359663556 487.44826174660994L383.70278875607903 487.44826174660994L383.70278875607903 493.7644146638352ZM423.98120653969596 354.46390551672465L448.2448978009494 354.46390551672465Q469.12616837428976 354.46390551672465 477.13353163547157 371.4450379499205L477.13353163547157 371.4450379499205Q480.27435084567645 378.48599530026996 480.27435084567645 386.25175708374366L480.27435084567645 386.25175708374366Q480.27435084567645 403.7160924723557 468.1597624634575 413.44918057430937L468.1597624634575 413.44918057430937Q459.87628322775225 419.97242047242725 448.9697022340736 419.97242047242725L448.9697022340736 419.97242047242725L423.98120653969596 419.97242047242725L423.98120653969596 354.46390551672465Z " fill="#b19fff" transform="matrix(0.5335977699365075,0,0,0.5335977699365076,0,74.209304318106)"/><path d="M650.9255167178333 495.7998082747638L718.3785560214975 495.7998082747638L718.3785560214975 489.6616152401688L690.0690755777915 489.6616152401688L690.0690755777915 426.23362054935376L738.6714892779454 426.23362054935376L738.6714892779454 419.39104470751016L690.0690755777915 419.39104470751016L690.0690755777915 360.4241411292696L727.8038688232526 360.4241411292696Q744.8096823125405 360.4241411292696 752.1218466925498 383.29981134562917L752.1218466925498 383.29981134562917Q752.5914352307155 384.7085769601263 752.8262294997984 385.6477540364578L752.8262294997984 385.6477540364578L756.1133492669586 396.75016876023346L760.8427766870564 396.75016876023346L759.668805341642 354.2859480946746L650.9255167178333 354.2859480946746L650.9255167178333 360.4241411292696L669.809684359784 360.4241411292696L669.809684359784 489.6616152401688L650.9255167178333 489.6616152401688L650.9255167178333 495.7998082747638ZM855.3977830505718 498.1477509655925L855.3977830505718 498.1477509655925Q873.5775678852739 498.1477509655925 875.4559220379368 476.2112578255644L875.4559220379368 476.2112578255644Q875.6907163070197 474.8024922110672 875.6907163070197 473.6285208656529L875.6907163070197 473.6285208656529L869.5525232724248 473.39372659657Q867.9089633888447 490.6007923165003 860.3620047397525 490.83558658558314L860.3620047397525 490.83558658558314Q854.2238117051573 490.3659980474174 853.9890174360745 478.59274255483353L853.9890174360745 478.59274255483353L853.9890174360745 428.8163575092653Q853.9890174360745 395.1066088766534 820.2792688034626 393.19471268555003L820.2792688034626 393.19471268555003Q818.1325783432764 393.19471268555003 816.0194299215306 393.19471268555003L816.0194299215306 393.19471268555003Q789.621845668928 393.19471268555003 780.6325793668982 405.47109875474007L780.6325793668982 405.47109875474007Q777.8150481379038 409.49614336758924 777.8150481379038 413.487645941998L777.8150481379038 413.487645941998Q777.8150481379038 420.7998103220073 784.6576239797474 421.9737816674217L784.6576239797474 421.9737816674217Q785.8315953251617 422.2085759365046 787.0055666705761 422.2085759365046L787.0055666705761 422.2085759365046Q792.4393768979224 422.2085759365046 795.022113857834 415.36600009466093L795.022113857834 415.36600009466093Q798.3427756634346 406.6450701001544 799.5167470088489 405.00151021657433L799.5167470088489 405.00151021657433Q804.0113801598638 399.09811145106215 813.4366929616191 399.09811145106215L813.4366929616191 399.09811145106215Q835.6079803707299 400.50687706555937 836.3123631779786 423.3825472819189L836.3123631779786 423.3825472819189L836.3123631779786 438.24167031102047Q780.867373635981 438.24167031102047 772.8508264487231 461.3521347964629L772.8508264487231 461.3521347964629Q771.4420608342259 465.84676794747776 771.4420608342259 471.0457839057413L771.4420608342259 471.0457839057413Q771.4420608342259 488.9572324329202 787.2403609396589 495.5650140056809L787.2403609396589 495.5650140056809Q793.6133482433369 498.1477509655925 800.6907183542633 498.1477509655925L800.6907183542633 498.1477509655925Q817.8977840741935 498.1477509655925 829.7045816052179 486.3744954730086L829.7045816052179 486.3744954730086Q833.9644204871498 481.8798623219937 836.0775689088956 476.91564063281305L836.0775689088956 476.91564063281305Q838.8951001378902 497.91295669650964 855.3977830505718 498.1477509655925ZM808.4724712724384 488.72243816383735L808.4724712724384 488.72243816383735Q794.0829367815026 488.72243816383735 790.7958170143423 474.33290367290147L790.7958170143423 474.33290367290147Q790.0914342070938 471.0457839057413 790.0914342070938 467.02073929289213L790.0914342070938 467.02073929289213Q790.0914342070938 451.2224391874591 808.2376770033555 446.99614234396745L808.2376770033555 446.99614234396745Q817.8977840741935 444.8494518837812 836.3123631779786 444.61465761469833L836.3123631779786 444.61465761469833L836.3123631779786 463.4988252566491Q832.7569071032951 479.7667139002479 819.1052974580483 486.3744954730086L819.1052974580483 486.3744954730086Q813.6714872307019 488.72243816383735 808.4724712724384 488.72243816383735ZM906.8177279797201 401.44605414189084L923.3204108924017 401.44605414189084L923.3204108924017 395.57619741481915L877.5690704596826 395.57619741481915L877.5690704596826 401.44605414189084L888.2018966452925 401.44605414189084L916.9809656271642 480.4710967074965Q921.6768510088217 493.68665985301794 927.3454555052509 495.7998082747638L927.3454555052509 495.7998082747638Q930.1629867342454 496.97377962017816 934.4228256161774 496.97377962017816L934.4228256161774 496.97377962017816L937.4751511142547 496.97377962017816L970.7488532471413 409.7309376366721Q973.5663844761357 402.41877325666275 977.5914290889849 401.7143904494141L977.5914290889849 401.7143904494141Q978.7654004343992 401.44605414189084 979.7045775107307 401.44605414189084L979.7045775107307 401.44605414189084Q984.9035934689942 401.44605414189084 985.3731820071599 397.92414010564784L985.3731820071599 397.92414010564784Q985.6079762762428 396.75016876023346 985.6079762762428 395.57619741481915L985.6079762762428 395.57619741481915L949.2819486452789 395.57619741481915L949.2819486452789 401.44605414189084L966.958602903375 401.44605414189084L937.0055625760889 481.8798623219937L906.8177279797201 401.44605414189084ZM1041.7238065870483 489.89640950925167L1041.7238065870483 489.89640950925167L1029.9170090560242 489.89640950925167L1029.9170090560242 395.57619741481915L993.3897291944179 395.57619741481915L993.3897291944179 401.44605414189084L1012.2403547979283 401.44605414189084L1012.2403547979283 475.7416692873987Q1012.2403547979283 486.6092897420915 1004.9281904179189 488.9572324329202L1004.9281904179189 488.9572324329202Q1001.4062763816759 489.89640950925167 993.3897291944179 489.89640950925167L993.3897291944179 489.89640950925167L993.3897291944179 495.7998082747638L1047.6272053525608 495.7998082747638Q1047.6272053525608 490.6007923165003 1044.0717492778772 490.1312037783345L1044.0717492778772 490.1312037783345Q1042.8977779324628 489.89640950925167 1041.7238065870483 489.89640950925167ZM1032.768082323459 361.1285239365182L1032.768082323459 361.1285239365182Q1032.768082323459 352.8771824801774 1025.4559179434495 349.35526844393434L1025.4559179434495 349.35526844393434Q1022.6383867144552 348.1477550600796 1020.0221077161033 348.1477550600796L1020.0221077161033 348.1477550600796Q1011.7707662597625 348.1477550600796 1008.2488522235195 355.6947137091718L1008.2488522235195 355.6947137091718Q1007.0413388396647 358.3109927075238 1007.0413388396647 361.1285239365182L1007.0413388396647 361.1285239365182Q1007.0413388396647 369.8494539310248 1014.8230917578397 373.17011573662535L1014.8230917578397 373.17011573662535Q1017.4393707561918 374.1092928129568 1020.0221077161033 374.1092928129568L1020.0221077161033 374.1092928129568Q1028.273449172444 374.1092928129568 1031.5941109780447 366.5623341638646L1031.5941109780447 366.5623341638646Q1032.768082323459 363.97959720395306 1032.768082323459 361.1285239365182ZM1064.1298882652422 446.7278060364442L1064.1298882652422 446.7278060364442Q1064.1298882652422 475.27208074923294 1085.1272043289387 489.42682097108593L1085.1272043289387 489.42682097108593Q1098.1079732053777 498.1477509655925 1114.610656118059 498.1477509655925L1114.610656118059 498.1477509655925Q1139.1298862179988 498.1477509655925 1151.6410665562717 480.9406852456622L1151.6410665562717 480.9406852456622Q1154.4585977852662 476.91564063281305 1156.1021576688463 472.92413805840425L1156.1021576688463 472.92413805840425L1149.9639646342512 470.81098963665846Q1141.2430346397446 489.42682097108593 1121.2184376908199 491.3051751237488L1121.2184376908199 491.3051751237488Q1119.3065414997163 491.5399693928317 1117.4281873470536 491.5399693928317L1117.4281873470536 491.5399693928317Q1100.6907101652891 491.5399693928317 1091.2653973635338 474.8024922110672L1091.2653973635338 474.8024922110672Q1084.1880272526073 462.09005964215186 1084.1880272526073 444.61465761469833L1084.1880272526073 444.61465761469833Q1084.1880272526073 413.7224402110809 1100.455915896206 403.3579503329942L1100.455915896206 403.3579503329942Q1107.29849173805 399.09811145106215 1115.5498331943909 399.09811145106215L1115.5498331943909 399.09811145106215Q1128.2958078017464 399.09811145106215 1130.8785447616578 408.9930127909831L1130.8785447616578 408.9930127909831Q1131.3481332998235 410.90490898208645 1132.0525161070723 414.8964115564952L1132.0525161070723 414.8964115564952Q1133.4612817215693 424.3552663966908 1137.251532065336 426.7032090875195L1137.251532065336 426.7032090875195Q1139.5994747561645 427.8771804329338 1142.417005985159 428.1119747020167L1142.417005985159 428.1119747020167Q1150.4335531724169 428.58156324018245 1152.580243632603 421.50419312925595L1152.580243632603 421.50419312925595Q1153.0498321707687 419.86063324567584 1153.0498321707687 418.4518676311787L1153.0498321707687 418.4518676311787Q1153.0498321707687 406.41027583107154 1137.7211206035017 398.6285229128964L1137.7211206035017 398.6285229128964Q1126.8535001488085 393.19471268555003 1114.1410675798934 393.19471268555003L1114.1410675798934 393.19471268555003Q1082.5109253305868 393.19471268555003 1070.0332870307543 418.92145616934437L1070.0332870307543 418.92145616934437Q1064.1298882652422 431.164300200094 1064.1298882652422 446.7278060364442ZM1186.7595808033807 445.5538346910298L1186.7595808033807 445.5538346910298Q1186.7595808033807 408.9930127909831 1206.8177197907457 400.9764656037251L1206.8177197907457 400.9764656037251Q1212.0167357490095 399.09811145106215 1217.6517982069981 399.09811145106215L1217.6517982069981 399.09811145106215Q1243.8481302289583 399.09811145106215 1248.07442707245 432.1370193148659L1248.07442707245 432.1370193148659Q1248.7788098796987 437.77208177285473 1248.7788098796987 444.61465761469833L1248.7788098796987 444.61465761469833Q1248.7788098796987 484.2278050128224 1227.1106530471939 491.070380854666L1227.1106530471939 491.070380854666Q1222.850814165262 492.2778942385208 1218.3561810142469 492.2778942385208L1218.3561810142469 492.2778942385208Q1194.541333721556 492.2778942385208 1188.4031406869608 463.9684137948148L1188.4031406869608 463.9684137948148Q1186.7595808033807 455.717072338474 1186.7595808033807 445.5538346910298ZM1218.3561810142469 393.19471268555003L1218.3561810142469 393.19471268555003Q1195.7153050669704 393.19471268555003 1180.6213877687856 408.75821852190023L1180.6213877687856 408.75821852190023Q1166.734983854456 423.14775301283606 1166.734983854456 444.61465761469833L1166.734983854456 444.61465761469833Q1166.734983854456 474.33290367290147 1188.4031406869608 489.19202670200303L1188.4031406869608 489.19202670200303Q1201.6187038324824 498.1477509655925 1217.6517982069981 498.1477509655925L1217.6517982069981 498.1477509655925Q1240.2926741542751 498.1477509655925 1255.1517971833764 482.11465659107654L1255.1517971833764 482.11465659107654Q1268.8369488670637 467.49032783105787 1268.8369488670637 445.5538346910298L1268.8369488670637 445.5538346910298Q1268.8369488670637 415.83558863282667 1246.9004557270355 401.44605414189084L1246.9004557270355 401.44605414189084Q1233.9532288890373 393.19471268555003 1218.3561810142469 393.19471268555003ZM1331.3257664815474 489.89640950925167L1331.3257664815474 489.89640950925167L1320.7264823343776 489.89640950925167L1320.7264823343776 438.94605311826905Q1321.4308651416263 417.0431020166814 1336.289988170728 407.349452907403L1336.289988170728 407.349452907403Q1342.6629754744058 403.3579503329942 1349.2707570471666 403.3579503329942L1349.2707570471666 403.3579503329942Q1363.6602915381022 403.3579503329942 1368.8257654579256 416.8083077475986L1368.8257654579256 416.8083077475986Q1370.9724559181118 422.2085759365046 1370.9724559181118 429.0511517783482L1370.9724559181118 429.0511517783482L1370.9724559181118 475.7416692873987Q1370.9724559181118 486.6092897420915 1364.8342628835167 488.72243816383735L1364.8342628835167 488.72243816383735Q1361.2788068088335 489.89640950925167 1353.2622596215751 489.89640950925167L1353.2622596215751 489.89640950925167L1353.2622596215751 495.7998082747638L1406.325764434304 495.7998082747638Q1406.325764434304 490.6007923165003 1402.8038503980606 490.1312037783345L1402.8038503980606 490.1312037783345Q1401.8646733217292 489.89640950925167 1400.4559077072322 489.89640950925167L1400.4559077072322 489.89640950925167L1388.6491101762076 489.89640950925167L1388.6491101762076 431.3990944691769Q1388.6491101762076 407.81904144556876 1372.3812215326088 397.68934583656494L1372.3812215326088 397.68934583656494Q1364.8342628835167 393.19471268555003 1356.11333288901 393.19471268555003L1356.11333288901 393.19471268555003Q1338.6379308615565 393.19471268555003 1327.3342639071384 407.1146586383201L1327.3342639071384 407.1146586383201Q1323.0744250252064 412.5484688656665 1320.491688065295 419.15625043842726L1320.491688065295 419.15625043842726L1319.5525109889636 395.57619741481915L1285.339631779745 395.57619741481915L1285.339631779745 401.44605414189084L1303.0498280762818 401.44605414189084L1303.0498280762818 475.7416692873987Q1303.0498280762818 486.6092897420915 1296.9116350416866 488.72243816383735L1296.9116350416866 488.72243816383735Q1293.3561789670034 489.89640950925167 1285.339631779745 489.89640950925167L1285.339631779745 489.89640950925167L1285.339631779745 495.7998082747638L1337.2291652470594 495.7998082747638Q1337.2291652470594 490.6007923165003 1333.7072512108161 490.1312037783345L1333.7072512108161 490.1312037783345Q1332.7680741344848 489.89640950925167 1331.3257664815474 489.89640950925167ZM1448.085602292614 484.96572985851145L1448.085602292614 484.96572985851145Q1448.085602292614 477.1839769403363 1441.0082321816876 473.8633151347357L1441.0082321816876 473.8633151347357Q1438.6602894908588 472.6893437893214 1436.044010492507 472.6893437893214L1436.044010492507 472.6893437893214Q1428.2622575743317 472.6893437893214 1425.2099320762545 479.7667139002479L1425.2099320762545 479.7667139002479Q1424.03596073084 482.34945086015944 1424.03596073084 484.96572985851145L1424.03596073084 484.96572985851145Q1424.03596073084 492.5126885076036 1430.8785365726835 495.7998082747638L1430.8785365726835 495.7998082747638Q1433.4612735325954 496.97377962017816 1436.044010492507 496.97377962017816L1436.044010492507 496.97377962017816Q1443.590969141599 496.97377962017816 1446.9116309471997 490.1312037783345L1446.9116309471997 490.1312037783345Q1448.085602292614 487.548466818423 1448.085602292614 484.96572985851145ZM1515.3038473271954 489.89640950925167L1515.3038473271954 489.89640950925167L1503.4970497961713 489.89640950925167L1503.4970497961713 395.57619741481915L1466.9362278961244 395.57619741481915L1466.9362278961244 401.44605414189084L1485.820395538075 401.44605414189084L1485.820395538075 475.7416692873987Q1485.820395538075 486.6092897420915 1478.5082311580659 488.9572324329202L1478.5082311580659 488.9572324329202Q1474.9527750833822 489.89640950925167 1466.9362278961244 489.89640950925167L1466.9362278961244 489.89640950925167L1466.9362278961244 495.7998082747638L1521.2072460927075 495.7998082747638Q1521.2072460927075 490.6007923165003 1517.6517900180238 490.1312037783345L1517.6517900180238 490.1312037783345Q1516.4778186726098 489.89640950925167 1515.3038473271954 489.89640950925167ZM1506.3481230636057 361.1285239365182L1506.3481230636057 361.1285239365182Q1506.3481230636057 352.8771824801774 1499.0359586835966 349.35526844393434L1499.0359586835966 349.35526844393434Q1496.1848854161617 348.1477550600796 1493.6021484562502 348.1477550600796L1493.6021484562502 348.1477550600796Q1485.3508069999093 348.1477550600796 1481.795350925226 355.6947137091718L1481.795350925226 355.6947137091718Q1480.6213795798117 358.3109927075238 1480.6213795798117 361.1285239365182L1480.6213795798117 361.1285239365182Q1480.6213795798117 369.8494539310248 1488.4031324979865 373.17011573662535L1488.4031324979865 373.17011573662535Q1491.0194114963388 374.1092928129568 1493.6021484562502 374.1092928129568L1493.6021484562502 374.1092928129568Q1501.8534899125912 374.1092928129568 1505.1406096797514 366.5623341638646L1505.1406096797514 366.5623341638646Q1506.3481230636057 363.97959720395306 1506.3481230636057 361.1285239365182ZM1557.734525954314 445.5538346910298L1557.734525954314 445.5538346910298Q1557.734525954314 408.9930127909831 1577.792664941679 400.9764656037251L1577.792664941679 400.9764656037251Q1582.9916808999424 399.09811145106215 1588.6602853963718 399.09811145106215L1588.6602853963718 399.09811145106215Q1614.8230753798916 399.09811145106215 1619.0829142618236 432.1370193148659L1619.0829142618236 432.1370193148659Q1619.7872970690719 437.77208177285473 1619.7872970690719 444.61465761469833L1619.7872970690719 444.61465761469833Q1619.7872970690719 484.2278050128224 1598.0855981981267 491.070380854666L1598.0855981981267 491.070380854666Q1593.8257593161948 492.2778942385208 1589.36466820362 492.2778942385208L1589.36466820362 492.2778942385208Q1565.5162788724888 492.2778942385208 1559.4116278763345 463.9684137948148L1559.4116278763345 463.9684137948148Q1557.734525954314 455.717072338474 1557.734525954314 445.5538346910298ZM1589.36466820362 393.19471268555003L1589.36466820362 393.19471268555003Q1566.7237922563436 393.19471268555003 1551.6298749581592 408.75821852190023L1551.6298749581592 408.75821852190023Q1537.7099290053889 423.14775301283606 1537.7099290053889 444.61465761469833L1537.7099290053889 444.61465761469833Q1537.7099290053889 474.33290367290147 1559.4116278763345 489.19202670200303L1559.4116278763345 489.19202670200303Q1572.5936489834153 498.1477509655925 1588.6602853963718 498.1477509655925L1588.6602853963718 498.1477509655925Q1611.3011613436483 498.1477509655925 1626.1267423343093 482.11465659107654L1626.1267423343093 482.11465659107654Q1639.8118940179966 467.49032783105787 1639.8118940179966 445.5538346910298L1639.8118940179966 445.5538346910298Q1639.8118940179966 415.83558863282667 1617.8754008779688 401.44605414189084L1617.8754008779688 401.44605414189084Q1604.9281740399706 393.19471268555003 1589.36466820362 393.19471268555003Z " fill="#080a52" transform="matrix(0.5335977699365075,0,0,0.5335977699365076,0,74.209304318106)"/></g></svg>